/* XPM */
static char *beneath_a_steel_sky[] = {
/* columns rows colors chars-per-pixel */
"32 32 149 2 ",
"   c #242424",
".  c #252525",
"X  c #262626",
"o  c #272727",
"O  c #282828",
"+  c #292929",
"@  c #2B2B2B",
"#  c #2C2C2C",
"$  c #2D2D2D",
"%  c #2F2F2F",
"&  c #303030",
"*  c #323232",
"=  c #333333",
"-  c #343434",
";  c #353535",
":  c #363636",
">  c #373737",
",  c #393939",
"<  c #3A3A3A",
"1  c #3B3B3B",
"2  c #3D3D3D",
"3  c #3E3E3E",
"4  c #3F3F3F",
"5  c #404040",
"6  c #414141",
"7  c #424242",
"8  c #434343",
"9  c #444444",
"0  c #454545",
"q  c #494949",
"w  c #4A4A4A",
"e  c #4B4B4B",
"r  c #4C4C4C",
"t  c #4D4D4D",
"y  c #4E4E4E",
"u  c #505050",
"i  c #515151",
"p  c #535353",
"a  c #555555",
"s  c #565656",
"d  c #575757",
"f  c #585858",
"g  c #595959",
"h  c #5B5B5B",
"j  c #5C5C5C",
"k  c #5E5E5E",
"l  c #606060",
"z  c #616161",
"x  c #626262",
"c  c #636363",
"v  c #656565",
"b  c #686868",
"n  c #696969",
"m  c #6A6A6A",
"M  c #6D6D6D",
"N  c #6F6F6F",
"B  c #707070",
"V  c #717171",
"C  c #727272",
"Z  c #737373",
"A  c #747474",
"S  c #757575",
"D  c #767676",
"F  c #787878",
"G  c #797979",
"H  c #7A7A7A",
"J  c #7B7B7B",
"K  c #7C7C7C",
"L  c #7E7E7E",
"P  c #808080",
"I  c #818181",
"U  c #848484",
"Y  c #868686",
"T  c #878787",
"R  c #898989",
"E  c #8A8A8A",
"W  c #8B8B8B",
"Q  c #8C8C8C",
"!  c #8E8E8E",
"~  c #909090",
"^  c #919191",
"/  c #929292",
"(  c #939393",
")  c #949494",
"_  c #959595",
"`  c #969696",
"'  c #989898",
"]  c #999999",
"[  c #9A9A9A",
"{  c #9B9B9B",
"}  c #9C9C9C",
"|  c #9D9D9D",
" . c #9E9E9E",
".. c #A0A0A0",
"X. c #A1A1A1",
"o. c #A2A2A2",
"O. c #A3A3A3",
"+. c #A4A4A4",
"@. c #A5A5A5",
"#. c #A6A6A6",
"$. c #A7A7A7",
"%. c #A8A8A8",
"&. c #A9A9A9",
"*. c #AAAAAA",
"=. c #ABABAB",
"-. c #ACACAC",
";. c #ADADAD",
":. c #AEAEAE",
">. c #AFAFAF",
",. c #B0B0B0",
"<. c #B1B1B1",
"1. c #B2B2B2",
"2. c #B3B3B3",
"3. c #B4B4B4",
"4. c #B5B5B5",
"5. c #B6B6B6",
"6. c #B7B7B7",
"7. c #B8B8B8",
"8. c #B9B9B9",
"9. c #BABABA",
"0. c #BBBBBB",
"q. c #BCBCBC",
"w. c #BDBDBD",
"e. c #BEBEBE",
"r. c #BFBFBF",
"t. c #C0C0C0",
"y. c #C1C1C1",
"u. c #C2C2C2",
"i. c #C3C3C3",
"p. c #C4C4C4",
"a. c #C5C5C5",
"s. c #C6C6C6",
"d. c #C7C7C7",
"f. c #C8C8C8",
"g. c #C9C9C9",
"h. c #CACACA",
"j. c #CBCBCB",
"k. c #CCCCCC",
"l. c #CDCDCD",
"z. c #CECECE",
"x. c #CFCFCF",
"c. c #D0D0D0",
"v. c #D1D1D1",
"b. c #D3D3D3",
"n. c #D4D4D4",
"m. c #D5D5D5",
"M. c gray84",
"N. c #D8D8D8",
"B. c None",
/* pixels */
"B.B.B.B.B.B.B.B.B.B.B.B.B.B.B.B.B.B.B.B.B.B.B.B.B.B.B.B.B.B.B.B.",
"B.B.B.B.B.B.B.B.B.B.B.B.B.B.B.B.B.B.B.B.B.B.B.B.B.B.B.B.B.B.B.B.",
"B.B.B.B.B.B.B.B.B.B.B.B.B.B.B.B.B.B.B.B.B.B.B.B.B.B.B.B.B.B.B.B.",
"B.B.B.B.B.B.B.B.B.B.B.B.B.B.B.B.B.B.B.B.B.B.B.B.B.B.B.B.B.B.B.B.",
"B.B.B.B.B.=.;.,.,.5.5.9.r.y.y.y.y.a.a.a.y.y.y.r.r.r.5.B.B.B.B.B.",
"B.B.B.B.#.=.T ] 5.r.) M M B B S S S S S T 9.a.o.H ^ 5.;.B.B.B.B.",
"B.B.B.B.=.] ; 2 ) y.H . . . . O . = = . . z y.R . 6 ;.;.B.B.B.B.",
"B.B.B.B.;.} ; . 6 =.o.; O O O . $ v k . O ; =.^ $ 2 ;.;.B.B.B.B.",
"B.B.B.B.;.5.d . . b r.z . O O = I 5.) 2 O O M 5.r 2 =.;.B.B.B.B.",
"B.B.B.B.,.r.M . O $ z ! 0 O . d k.v.v.H . O $ ^ b 2 =.;.B.B.B.B.",
"B.B.B.B.,.y.I O O . $ B B . . f v.m.m.L . O   u H 0 ;.;.B.B.B.B.",
"B.B.B.B.,.y.=., O . u 5.! O . e h.m.v.b O d e O z B =.=.B.B.B.B.",
"B.B.B.B.5.9.r.v . . b N.#.$ . 6 y.m.k.k u 9.#., d #.;.=.B.B.B.B.",
"B.B.B.B.9.9.r.=.2 . e k.R ; r 6 y.m.k.k S a.r.d d ;.;.#.B.B.B.B.",
"B.B.B.B.9.a.) } M . 6 a.^ H ! 0 y.v.h.k r r.#., z ,.;.=.B.B.B.B.",
"B.B.B.B.9.y.d f S . 6 y.;.a.5.u r.k.a.k 2 5.} 2 ^ 5.,.#.B.B.B.B.",
"B.B.B.B.r.#.2 I ) ; 0 y.,.h.9.d 9.h.a.k 2 ,.,.^ ;.,.=.o.B.B.B.B.",
"B.B.B.B.r.] 6 5.k.k H h.5.y.#.e 9.h.y.f 6 ,.o.u } ,.=.o.B.B.B.B.",
"B.B.B.B.r.o.u =.5.e } k.v.k.o.0 5.y.y.k 2 ,.] 2 ) ;.#.o.B.B.B.B.",
"B.B.B.B.9.5.! ;.o.; #.k.k.k.o.e 5.y.r.k 6 =.;.R ] =.#.o.B.B.B.B.",
"B.B.B.B.9.} ; ! #., } k.a.h.;.B 9.r.9.L e =.,.o.] #.#.o.B.B.B.B.",
"B.B.B.B.r.} r ;.y.L ;.a.a.y.,.] 9.9.9.;.) ;.;.] ] #.#.o.B.B.B.B.",
"B.B.B.B.5.r.! 5.y.R =.y.r.r.5.=.9.5.5.} B =.=.o.o.#.#.} B.B.B.B.",
"B.B.B.B.5.y.;.9.y.) o.y.r.9.5.=.5.,.;.) I =.#.o.#.#.#.o.B.B.B.B.",
"B.B.B.B.,.r.] ,.r.#.o.9.9.5.5.;.,.;.;.o.} #.=.} } #.#.o.B.B.B.B.",
"B.B.B.B.,.r.=.5.r.,.,.9.5.5.,.,.;.=.=.=.=.#.#.#.#.#.#.o.B.B.B.B.",
"B.B.B.B.;.9.9.5.9.#.#.5.,.,.;.=.=.#.#.#.=.#.#.] ] #.#.} B.B.B.B.",
"B.B.B.B.#.,.5.,.,.#.o.,.;.;.=.=.#.#.#.#.#.#.=.} } =.o.B.B.B.B.B.",
"B.B.B.B.B.B.} } } ] ] ] ) ) ) ^ ^ ^ ^ ^ ^ ^ ) ) ) ) B.B.B.B.B.B.",
"B.B.B.B.B.B.B.B.B.B.B.B.B.B.B.B.B.B.B.B.B.B.B.B.B.B.B.B.B.B.B.B.",
"B.B.B.B.B.B.B.B.B.B.B.B.B.B.B.B.B.B.B.B.B.B.B.B.B.B.B.B.B.B.B.B.",
"B.B.B.B.B.B.B.B.B.B.B.B.B.B.B.B.B.B.B.B.B.B.B.B.B.B.B.B.B.B.B.B."
};
